<svg width="96" height="96" xmlns="http://www.w3.org/2000/svg" xmlns:xlink="http://www.w3.org/1999/xlink" overflow="hidden"><defs><clipPath id="clip0"><rect x="0" y="0" width="96" height="96"/></clipPath></defs><g clip-path="url(#clip0)"><path d="M54.071 28 54.071 28C51.6757 28.0605 49.4395 29.2126 48 31.128 46.5605 29.212 44.3237 28.0597 41.928 28 37.5016 28.2065 33.983 31.7906 33.858 36.22 33.858 44.468 45.458 53.577 46.785 54.589L48 55.518 49.215 54.589C50.538 53.577 62.142 44.468 62.142 36.22 62.017 31.7902 58.4978 28.206 54.071 28ZM48 53C48 53 35.858 43.718 35.858 36.22 35.994 32.8999 38.6122 30.217 41.928 30 43.999 30 46.233 31.3 47.991 34.777 47.9926 34.7817 47.9978 34.7842 48.0025 34.7825 48.0051 34.7816 48.0071 34.7796 48.008 34.777 49.766 31.3 52 30 54.071 30 57.3868 30.217 60.005 32.8999 60.141 36.22 60.141 43.718 48 53 48 53Z"/><path d="M78.6 17.005 17.4 17.005C15.5304 17.0245 14.0195 18.5354 14 20.405L14 61.717C13.9845 63.5792 15.4815 65.1015 17.3438 65.117 17.3625 65.1171 17.3813 65.1171 17.4 65.117L54.8 65.117 68.4 79.017 68.4 65.217 78.6 65.217C80.4696 65.1975 81.9805 63.6866 82 61.817L82 20.506C82.0239 18.6019 80.504 17.0368 78.6 17.005ZM80 61.817C79.98 62.5818 79.3648 63.197 78.6 63.217L66.4 63.217 66.4 74.117 56.232 63.72 55.644 63.12 17.4 63.12C16.6436 63.1368 16.0168 62.5371 16 61.7807 15.9996 61.7604 15.9996 61.7402 16 61.72L16 20.406C16.02 19.6412 16.6352 19.026 17.4 19.006L78.6 19.006C79.3998 19.0359 80.0253 19.7061 80 20.506Z"/></g></svg>